<?xml version="1.0" encoding="UTF-8"?>
<svg xmlns="http://www.w3.org/2000/svg" xmlns:xlink="http://www.w3.org/1999/xlink" width="374.5pt" height="288.2pt" viewBox="0 0 374.5 288.2" version="1.1">
<defs>
<clipPath id="clip1">
  <path d="M 2 1 L 374.5 1 L 374.5 285 L 2 285 Z M 2 1 "/>
</clipPath>
</defs>
<g id="surface1">
<g clip-path="url(#clip1)" clip-rule="nonzero">
<path style=" stroke:none;fill-rule:evenodd;fill:rgb(0%,0%,0%);fill-opacity:1;" d="M 144.230469 231.578125 C 145.375 231.488281 149.378906 229.972656 150.984375 229.527344 C 154.988281 228.371094 168.726563 224.722656 171.703125 223.296875 C 172.054688 227.574219 173.539063 227.023438 177.191406 227.042969 C 175.355469 231.121094 175.601563 234.199219 178.242188 237.832031 C 175.707031 242.226563 175.8125 245.617188 177.558594 250.34375 C 178.480469 252.851563 177.648438 253.3125 177.066406 256.21875 C 175.820313 262.410156 178.496094 264.335938 178.503906 265.613281 C 178.511719 267.085938 176.292969 269.714844 175 270.367188 C 169.050781 273.363281 177.378906 275.394531 177.53125 275.542969 C 178.289063 276.261719 178.449219 280.644531 184.851563 283.320313 C 196.269531 288.105469 200.363281 276.667969 202.992188 275.460938 C 210.871094 271.859375 204.050781 270.953125 203.757813 269.03125 C 202.882813 263.300781 201.046875 263.769531 199.984375 260.101563 C 203.011719 256.558594 203.683594 251.402344 201.777344 247.1875 C 200.492188 244.34375 201.054688 246.664063 201.902344 242.921875 C 202.945313 238.308594 202.953125 235.0625 199.613281 231.546875 C 202.15625 226.84375 200.742188 228.917969 204.402344 225.773438 C 206.519531 223.957031 202.011719 222.410156 207.402344 224.175781 C 214.570313 226.523438 223.351563 229.382813 230.570313 231.117188 L 232.492188 231.578125 C 232.492188 219.046875 232.71875 206.101563 232.464844 193.625 C 232.417969 191.359375 232.316406 191.539063 229.28125 192.535156 C 221.511719 195.078125 212.023438 197.070313 204.902344 200.058594 C 204.789063 197.390625 204.445313 196.230469 201.351563 196.230469 L 201.351563 189.109375 C 202.726563 189.644531 204.332031 190.085938 205.59375 190.621094 C 206.738281 191.15625 207.992188 192.046875 209.484375 192.488281 C 216.734375 190.734375 215.382813 184.335938 226.574219 186.914063 C 238.355469 189.621094 232.40625 186.105469 241.925781 181.519531 C 249.871094 177.6875 250.445313 186.460938 258 176.902344 C 263.117188 170.421875 263.308594 172.859375 270.574219 171.9375 C 274.792969 171.40625 273.84375 163.613281 280.011719 161.519531 L 283.082031 160.472656 C 286.496094 159.238281 292.949219 158.519531 296.375 157.324219 C 299.4375 142.6875 294.925781 145.503906 315.558594 147.746094 L 318.472656 148.066406 C 321.789063 148.066406 322.367188 148.242188 325.339844 148.863281 C 331.40625 150.109375 330.375 148.066406 335.414063 146.191406 C 337.359375 145.480469 338.277344 144.410156 340.109375 143.609375 C 347.550781 140.355469 343.367188 140.882813 343.46875 132.675781 C 343.515625 128.695313 353.933594 124.847656 355.035156 122.78125 C 356.429688 120.171875 351.871094 113.539063 357.570313 106.867188 C 365.492188 97.601563 361.855469 102.539063 360.40625 93.015625 C 359.261719 85.539063 369.679688 79.46875 368.769531 75.394531 C 368.039063 72.136719 364.421875 66.183594 366.453125 63.203125 C 367.722656 61.328125 374.503906 50.171875 374.226563 48.140625 C 373.769531 44.886719 364.765625 35.5625 368.0625 32.488281 C 369.90625 30.769531 369.0625 31.632813 369.933594 28.488281 C 370.253906 27.316406 373.050781 16.574219 372.996094 16.277344 C 372.714844 14.6875 359.59375 5.574219 357.75 4.167969 C 353.726563 1.09375 354.800781 1.28125 351.988281 4.1875 C 349.015625 7.253906 323.195313 23.777344 318.632813 26.472656 C 295.539063 40 268.53125 53.277344 241.804688 57.09375 C 231.347656 58.59375 211.996094 59.261719 216.75 75.15625 C 217.871094 78.886719 224.261719 85.703125 226.613281 90.601563 C 232.464844 103.226563 234.449219 116 225.082031 127.734375 C 220.457031 133.527344 214.496094 136.96875 207.339844 138.621094 C 205.234375 139.011719 203.476563 139.117188 201.351563 139.246094 L 201.351563 43.625 L 188.417969 30.984375 L 175.367188 43.625 C 175.359375 52.316406 175.820313 138.488281 175.089844 139.148438 C 173.613281 140.496094 163.101563 136.8125 161.390625 135.917969 C 150.089844 130.023438 142.84375 116.128906 145.550781 103.558594 C 146.335938 99.925781 147.632813 96.632813 149.035156 93.21875 C 152.128906 86.09375 152.8125 86.628906 156.59375 80.929688 C 163.917969 70.335938 161.171875 61.519531 147.089844 58.851563 C 145.828125 58.671875 144.113281 58.582031 142.738281 58.316406 C 121.695313 55.183594 109.421875 51.335938 90.5 43.410156 C 71.007813 35.242188 41.480469 17.785156 25.148438 4.550781 C 20.871094 1.015625 23.898438 -0.0742188 15.132813 7.234375 C 11.484375 10.273438 10.09375 10.871094 6.507813 13.210938 C 2.304688 15.949219 3.957031 17.152344 5.105469 21.679688 C 5.585938 23.578125 6.644531 31.425781 8.175781 32.292969 C 11.195313 33.992188 9.171875 36.046875 7.292969 39.523438 C 1.523438 50.203125 0.0117188 46.605469 7.683594 59.039063 C 12.574219 66.96875 10.660156 65.925781 7.960938 74.953125 C 7.175781 77.59375 10.296875 79.84375 12.046875 82.542969 C 17.101563 90.328125 17.40625 89.65625 14.972656 98.253906 C 14.09375 101.355469 14.210938 101.230469 16.476563 104.015625 C 23.335938 112.4375 21.988281 108.839844 21.550781 120.152344 C 21.414063 123.644531 21.605469 122.898438 25.03125 125.1875 C 27.242188 126.664063 33.085938 129.84375 33.175781 132.683594 C 33.417969 140.652344 29.246094 140.335938 36.25 143.433594 C 43.023438 146.429688 44.34375 150.253906 53.011719 148.480469 C 57.464844 147.707031 62.601563 147.53125 67.46875 146.808594 C 76.308594 145.5 78.335938 144.042969 79.476563 152.902344 C 80.289063 159.214844 85.417969 158.3125 91.625 160.089844 C 100.992188 162.773438 99.445313 164.585938 104.6875 170.722656 C 106.976563 173.410156 112.402344 169.597656 116.582031 174.535156 C 121.496094 180.34375 121.332031 182.769531 127.917969 180.804688 C 133.390625 179.167969 135.242188 180.953125 139.238281 184.585938 C 145.671875 191.574219 144.226563 187.179688 152.375 186.269531 C 161.664063 185.226563 163.6875 194.601563 168.941406 191.78125 C 171.457031 190.429688 172.457031 190.058594 175.128906 189.160156 C 175.351563 201.53125 175.089844 193.710938 172.472656 197.183594 C 170.074219 200.363281 176.304688 201.421875 163.199219 197.445313 C 156.929688 195.546875 150.699219 193.542969 144.363281 191.871094 C 143.816406 203.886719 144.230469 217.574219 144.230469 229.765625 Z M 202.542969 197.226563 C 202.542969 206.820313 202.644531 216.515625 202.5 226.097656 C 193.125 226.179688 183.761719 226.132813 174.386719 226.132813 C 174.378906 216.5 174.378906 206.863281 174.386719 197.230469 C 183.773438 197.21875 193.160156 197.226563 202.542969 197.226563 Z M 150.984375 72.5625 C 152.699219 75.945313 151.4375 77.546875 149.378906 80.21875 C 143.609375 88.070313 138.347656 98.417969 138.484375 108.429688 C 138.578125 115.167969 139.15625 110.917969 139.160156 107.957031 C 139.171875 98.175781 146.28125 85.648438 152.699219 78.617188 C 158.078125 73.007813 154.417969 67.488281 148.347656 64.90625 C 148.320313 64.898438 122.113281 56.5625 131.910156 62.539063 C 137.351563 65.859375 147.191406 67.734375 150.984375 72.5625 Z M 233.632813 90.953125 C 231.164063 86.128906 229.488281 83.792969 226.664063 79.4375 C 220.980469 70.675781 232.109375 68.21875 238.472656 65.480469 C 249.714844 60.644531 249.839844 58.75 238.882813 61.871094 C 233.328125 63.453125 218.398438 66.34375 221.71875 75.214844 C 222.320313 76.816406 228.394531 84.109375 230.171875 87.007813 C 235.496094 95.980469 236.703125 99.847656 237.625 110.210938 C 238.0625 115.074219 237.730469 103.996094 237.519531 102.695313 C 236.675781 97.515625 235.769531 95.691406 233.632813 90.953125 Z M 205.59375 206.46875 L 204.789063 206.46875 C 202.542969 213.773438 206.519531 223.804688 206.085938 210.285156 C 206.039063 208.878906 206.003906 207.8125 205.59375 206.46875 Z M 209.136719 205.84375 L 209.023438 215.996094 C 209.113281 217.648438 208.914063 217.601563 210.511719 217.867188 C 210.550781 213.710938 210.589844 209.554688 210.628906 205.402344 Z M 207.992188 206.113281 L 207.078125 206.113281 C 204.945313 213.316406 208.511719 224.152344 208.511719 211.632813 C 208.511719 209.796875 208.519531 207.886719 207.992188 206.113281 Z M 212.800781 218.222656 L 212.917969 205.046875 C 210.628906 205.136719 211.429688 205.9375 211.429688 211.453125 C 211.429688 216.976563 210.628906 218.222656 212.800781 218.222656 Z M 213.71875 204.691406 L 213.71875 218.578125 L 215.09375 218.9375 L 215.207031 204.246094 C 214.175781 204.777344 214.863281 204.421875 213.71875 204.691406 Z M 216.007813 204.332031 C 215.78125 207.003906 216.007813 209.855469 216.007813 212.613281 C 216.007813 218.578125 215.207031 219.023438 217.496094 219.382813 L 217.496094 203.886719 Z M 220.703125 203.175781 L 220.585938 220.089844 L 222.078125 220.449219 L 222.078125 202.730469 C 221.046875 203.261719 221.847656 202.90625 220.703125 203.175781 Z M 218.640625 219.824219 L 219.441406 219.824219 C 220.242188 218.398438 220.242188 204.867188 219.441406 203.441406 L 218.640625 203.441406 C 217.84375 204.957031 217.84375 218.398438 218.640625 219.824219 Z M 224.480469 220.980469 L 224.480469 202.371094 C 221.960938 202.554688 222.878906 205.492188 222.878906 211.453125 C 222.878906 217.15625 221.960938 220.714844 224.480469 220.980469 Z M 171.019531 216.796875 L 171.816406 216.796875 C 172.503906 215.550781 172.503906 207.71875 171.816406 206.46875 L 171.019531 206.46875 C 170.328125 207.71875 170.328125 215.550781 171.019531 216.796875 Z M 168.726563 217.15625 L 169.527344 217.15625 C 170.214844 215.910156 170.214844 207.359375 169.527344 206.113281 L 168.726563 206.113281 C 168.039063 207.359375 168.039063 215.910156 168.726563 217.15625 Z M 166.09375 217.867188 C 168.269531 217.507813 167.582031 217.507813 167.582031 211.8125 C 167.582031 206.113281 168.269531 205.757813 166.09375 205.402344 Z M 161.515625 219.023438 L 162.886719 218.578125 C 162.925781 213.949219 162.964844 209.320313 163.003906 204.691406 C 162.507813 204.570313 162.011719 204.453125 161.515625 204.332031 C 161.515625 209.230469 161.515625 214.128906 161.515625 219.023438 Z M 163.804688 218.222656 C 165.980469 218.222656 165.292969 217.421875 165.292969 211.8125 C 165.292969 207.003906 165.980469 205.492188 164.148438 204.957031 C 163.234375 206.558594 163.6875 215.816406 163.804688 218.222656 Z M 159.109375 219.382813 C 161.515625 219.023438 160.714844 217.953125 160.714844 211.8125 C 160.714844 210.300781 160.714844 208.785156 160.714844 207.273438 C 160.785156 205.042969 161.40625 204.363281 159.222656 203.886719 C 159.183594 209.050781 159.148438 214.21875 159.109375 219.382813 Z M 154.53125 220.535156 L 156.019531 220.089844 C 156.058594 214.453125 156.09375 208.8125 156.132813 203.175781 C 155.640625 203.054688 155.140625 202.9375 154.644531 202.816406 C 154.605469 208.722656 154.570313 214.628906 154.53125 220.535156 Z M 152.242188 220.980469 C 153.957031 220.804688 153.730469 220.804688 153.730469 219.023438 C 153.730469 217.261719 154.234375 202.746094 153.320313 202.480469 C 151.335938 201.894531 152.242188 203.1875 152.242188 206.097656 C 152.242188 211.054688 152.242188 216.019531 152.242188 220.980469 Z M 157.164063 219.824219 L 158.078125 219.824219 C 158.667969 217.519531 159.234375 204.757813 157.890625 203.375 C 156.996094 203.707031 157.042969 202.871094 156.78125 205.640625 C 156.457031 209.085938 156.320313 216.542969 157.164063 219.824219 Z M 174.492188 273.203125 C 175.292969 271.382813 175.5 272.980469 178.1875 273.367188 C 180.421875 273.6875 202.15625 274.539063 202.140625 273.738281 C 202.128906 273.125 207.191406 270.539063 197.734375 270.59375 C 196.1875 270.605469 170.292969 269.390625 174.386719 273.355469 Z M 179.550781 276.382813 C 183.210938 285.238281 197.191406 282.394531 195.328125 275.769531 C 192.515625 274.921875 182.152344 274.605469 179.640625 275.601563 Z M 197.882813 268.859375 C 199.460938 265.875 196.921875 262.753906 194.859375 262.4375 C 193.09375 262.164063 182.945313 264.828125 181.882813 267.996094 C 180.953125 270.769531 181.390625 269.730469 186.566406 269.898438 C 189.519531 270 195.5625 270.691406 197.882813 268.859375 Z M 186.027344 233.945313 C 190.5625 232.871094 195.324219 231.917969 197.023438 227.167969 C 191.214844 227.082031 185.425781 227.0625 179.621094 227.042969 C 178.277344 229.351563 176.667969 236.542969 181.027344 235.359375 C 182.9375 234.835938 183.890625 234.398438 186.027344 233.945313 Z M 195.816406 258.101563 C 198.070313 256.082031 201.945313 251.007813 198.398438 248.160156 C 196.980469 247.019531 187.769531 249.886719 185.710938 250.558594 C 177.371094 253.289063 179.199219 262.980469 181.867188 263.027344 C 186.1875 263.113281 192.226563 260.402344 195.816406 258.101563 Z M 198.109375 242.023438 C 200.566406 238.5 200.320313 235.308594 196.710938 233.0625 C 189.917969 236.410156 177.835938 235.148438 179.3125 245.539063 C 180.003906 250.394531 182.554688 249.226563 186.679688 248.078125 C 190.816406 246.921875 195.167969 245.273438 198.109375 242.023438 Z M 202.957031 202.019531 C 202.957031 208.25 207.308594 204.957031 215.207031 203.441406 C 218.460938 202.800781 222.453125 202.042969 225.511719 200.863281 C 225.546875 207.445313 225.582031 214.03125 225.613281 220.613281 L 225.625 222.410156 C 223.125 221.820313 205.296875 217.179688 204.355469 217.695313 C 203.109375 218.382813 202.980469 220.078125 202.964844 221.339844 C 212.308594 224.070313 221.65625 226.800781 231.007813 229.527344 C 231.007813 218.226563 231.464844 204.855469 230.835938 193.792969 C 221.917969 195.949219 211.871094 199.332031 202.957031 202.019531 Z M 145.714844 229.710938 L 173.761719 221.339844 C 173.761719 215.105469 169.296875 218.3125 161.515625 219.824219 C 159.222656 220.269531 153.042969 221.519531 151.210938 222.410156 C 151.171875 215.230469 151.121094 208.050781 151.101563 200.871094 C 155.429688 202.394531 161.835938 203.664063 166.4375 204.597656 C 168.269531 204.957031 170.101563 205.582031 171.816406 205.757813 C 173.539063 205.3125 173.761719 203.261719 173.761719 201.929688 C 164.515625 199.226563 155.109375 196.3125 145.816406 193.871094 C 145.429688 205.519531 145.714844 217.976563 145.714844 229.710938 Z M 153.5 81.644531 C 160.484375 73.808594 162.085938 64.816406 149.609375 60.988281 C 148.234375 60.542969 145.601563 60.808594 142.054688 60.097656 C 127.457031 57.457031 121.496094 56.121094 107.402344 51.476563 C 88.492188 45.238281 70.199219 35.808594 53.117188 25.660156 C 38.320313 16.871094 59.703125 32.289063 61.851563 33.703125 C 77.902344 44.28125 92.710938 52.386719 110.136719 60.339844 C 120.921875 65.261719 127.734375 73.582031 126.558594 85.769531 C 125.785156 93.773438 126.199219 104.5625 127.820313 112.121094 C 132.953125 134.292969 145.894531 148.390625 168.507813 152.929688 C 171.054688 153.386719 172.589844 153.464844 175.148438 153.363281 C 176.117188 131.796875 172.480469 147.75 155.234375 134.570313 C 137.082031 120.703125 139.957031 97.730469 153.5 81.644531 Z M 175.144531 184.804688 C 175.214844 180.539063 175.269531 176.472656 175.078125 172.203125 C 168.101563 172.464844 168.683594 177.53125 168.300781 183.761719 C 167.871094 190.824219 167.675781 190.085938 174.238281 186.832031 C 175.300781 186.304688 175.066406 186.433594 175.144531 184.804688 Z M 167.039063 184.039063 C 167.730469 178.675781 168.136719 172.691406 161.65625 170.785156 C 158.785156 169.941406 158.453125 177.839844 158.152344 179.898438 C 157.550781 184.054688 158.164063 184.996094 162.511719 187.394531 C 168.164063 190.507813 166.527344 188.65625 167.039063 184.039063 Z M 144.773438 184.261719 C 145.695313 181.152344 148.1875 172.96875 146.390625 170.109375 C 141.363281 162.46875 139.476563 166.308594 137.621094 173.1875 C 137.023438 175.40625 136.679688 176.898438 137.390625 179.097656 C 138.03125 180.222656 143.097656 187.300781 144.773438 184.261719 Z M 173.882813 155.574219 C 170.027344 154.789063 171.203125 158.175781 170.667969 162.597656 C 170.296875 165.691406 169.875 167.75 170.101563 170.933594 C 176.851563 171.722656 175.308594 166.292969 175.269531 161.699219 C 175.257813 160.722656 175.453125 156.601563 174.925781 156.039063 Z M 155.890625 167.640625 C 160.242188 166.859375 159.695313 164.894531 160.703125 160.191406 C 161.386719 156.992188 162.359375 154.113281 158.476563 153.109375 C 156.417969 152.574219 155.859375 153.835938 154.566406 155.941406 C 153.644531 157.445313 148.070313 168.015625 151.90625 168.207031 C 152.847656 168.253906 154.917969 167.8125 155.890625 167.640625 Z M 168.363281 169.914063 C 169.277344 165.8125 172.355469 154.382813 165.234375 154.371094 C 161.328125 154.367188 160.851563 166.226563 161.746094 167.964844 C 162.535156 169.5 167.1875 172.972656 168.363281 169.914063 Z M 146.167969 147.128906 C 144.621094 138.722656 130.964844 157.824219 132.730469 160.648438 C 133.863281 162.460938 138.640625 160.277344 139.964844 159.046875 C 142.859375 156.355469 145.878906 151.117188 146.167969 147.128906 Z M 148.886719 165.816406 C 150.621094 162.394531 156.523438 149.890625 149.964844 148.386719 C 144.96875 149.179688 141.125 160.5 142.785156 163.949219 C 144.050781 166.570313 146.417969 168.71875 148.886719 165.816406 Z M 137.105469 139.707031 C 130.984375 142.902344 122.726563 151.65625 128.375 158.734375 C 130.632813 161.5625 134.648438 153.71875 135.644531 152.242188 C 137.019531 150.199219 144.582031 138.769531 137.105469 139.707031 Z M 133.445313 134.46875 C 124.511719 136.757813 111.230469 145.257813 125.785156 135.714844 C 134.097656 130.265625 133.191406 126.226563 122.78125 129.207031 C 98.996094 136.019531 116.136719 149.855469 123.949219 148.847656 C 127.785156 148.351563 141.980469 135.179688 133.445313 134.46875 Z M 115.121094 142.152344 C 114.308594 142.28125 114.238281 142.542969 115.121094 142.152344 Z M 100.808594 157.320313 C 115.476563 149.484375 115.644531 142.589844 96.558594 149.726563 C 96.347656 149.804688 87.027344 153.71875 89.105469 152.972656 C 93.289063 151.460938 106.300781 144.949219 107.75 140.875 C 110.441406 133.304688 93.03125 139.621094 89.996094 140.488281 C 82.492188 142.625 79.1875 143.351563 82.609375 152.269531 C 83.804688 155.378906 84.746094 153.578125 87.339844 153.554688 C 87.191406 154.816406 84.777344 155.640625 91 157.46875 C 94.644531 158.539063 97.300781 158.78125 100.808594 157.320313 Z M 123.550781 159.347656 C 127.921875 146.574219 109.367188 166.246094 110.199219 168.992188 C 111 171.640625 116.539063 170.019531 118.890625 167.316406 C 120.804688 165.113281 122.308594 161.96875 123.550781 159.347656 Z M 111.476563 100.414063 C 109.722656 100.425781 97.605469 99.878906 98.859375 103.125 C 99.945313 105.921875 103.960938 110.125 107.097656 110.128906 C 110.125 110.132813 122.289063 108.160156 123.773438 105.628906 C 125.359375 102.914063 123.550781 100.503906 120.886719 100.066406 C 118.332031 99.652344 114.265625 100.328125 111.476563 100.414063 Z M 39.417969 141.671875 C 48.8125 146.355469 44.140625 145.464844 55.28125 144.929688 C 57.550781 144.789063 75.398438 144.246094 74.890625 142.328125 C 74.25 139.917969 68.910156 137.511719 66.109375 137.613281 C 61.792969 137.765625 39.839844 139.132813 38.796875 140.222656 L 38.574219 140.890625 Z M 107.914063 167.601563 C 110.191406 165.8125 127.238281 150.195313 117.335938 149.1875 C 112.722656 148.722656 101.390625 156.203125 101.679688 160.761719 C 101.851563 163.410156 104.722656 168.96875 107.914063 167.601563 Z M 119.769531 90.027344 C 117.078125 90.003906 101.726563 89.953125 100.632813 91.386719 C 98.960938 93.566406 95.660156 100.273438 101.234375 100.296875 C 105.398438 100.316406 120 99.21875 123.191406 97.367188 C 124.574219 95.542969 125.246094 90.078125 119.769531 90.027344 Z M 49.359375 109.347656 C 52.296875 109.585938 54.699219 109.464844 54.417969 105.375 C 54.210938 102.339844 47.242188 102.867188 44.632813 102.585938 C 41.554688 102.253906 22.253906 100.542969 20.925781 100.769531 C 17.976563 101.269531 18.90625 101.84375 20.984375 104.394531 C 25.96875 110.503906 29.023438 108.777344 37 109.1875 C 41.695313 109.429688 43.742188 109.242188 48.101563 109.324219 Z M 39.292969 129.363281 C 35.726563 129.171875 36.300781 133.3125 36.324219 136.472656 C 36.34375 139.113281 36.890625 139.25 40.058594 138.734375 C 43.480469 138.28125 64.839844 137.722656 64.921875 135.105469 C 64.957031 134.027344 64.570313 129.417969 64.042969 128.988281 C 62.6875 127.878906 44.546875 129.546875 41.28125 129.433594 Z M 55.324219 94.472656 C 52.109375 93.277344 44.546875 93.257813 40.042969 92.648438 C 37.144531 92.253906 21.453125 89.714844 19.902344 91.285156 C 19.367188 91.824219 17.050781 98.460938 18.433594 98.988281 C 19.976563 99.574219 50.648438 101.371094 51.4375 101.371094 C 55.351563 101.375 56.191406 100.441406 56.234375 96.15625 C 56.246094 94.976563 56.300781 95.199219 55.324219 94.472656 Z M 85.835938 84.800781 C 89.078125 85.144531 91.945313 85.46875 95.082031 84.371094 C 95.503906 81.527344 93.789063 78.15625 90.683594 77.542969 C 87.746094 76.960938 59.292969 72.570313 57.585938 73.535156 C 56.585938 74.09375 51.742188 81.578125 54.832031 82.4375 C 58.867188 83.5625 79.269531 84.046875 85.835938 84.800781 Z M 54.660156 83.316406 C 52.972656 84.921875 55.480469 88.515625 56.246094 90.234375 C 60.46875 96.367188 66.394531 93.871094 73.75 94.511719 C 77.535156 94.839844 94.578125 96.929688 96.652344 93.847656 C 98.402344 91.25 98.546875 88.101563 94.765625 87.273438 C 82.257813 86.117188 69.78125 84.609375 57.320313 83.453125 C 56.386719 83.363281 55.589844 83.273438 54.660156 83.316406 Z M 116.351563 109.660156 C 109.097656 110.628906 103.597656 111.546875 103.078125 120.246094 C 102.625 127.875 108.847656 132.125 116.445313 130.429688 C 120.800781 129.460938 132.039063 126.722656 127.34375 120.222656 C 125.390625 117.527344 117.714844 120.554688 114.941406 121.28125 C 102.289063 124.570313 111.664063 121.460938 117.019531 120.003906 C 121.691406 118.734375 129.277344 116.203125 124.457031 109.914063 C 122.925781 107.917969 118.792969 109.332031 116.351563 109.660156 Z M 12.902344 20.027344 C 5.671875 15.558594 7.546875 17.863281 9.410156 26.425781 C 10.597656 31.878906 11.289063 30.769531 16.867188 32.960938 C 31.972656 38.84375 47.347656 43.65625 62.511719 49.195313 C 62.65625 49.25 88.636719 57.160156 80.265625 52.730469 C 76.558594 50.773438 68.34375 47.757813 64.226563 46.027344 C 46.691406 38.648438 29.128906 29.964844 12.902344 20.027344 Z M 7.324219 49.742188 C 4.835938 49.875 11.40625 59.953125 13.519531 61.171875 C 17.054688 62.800781 52.5 71.921875 53.671875 70.347656 C 54.179688 69.671875 52.039063 60.90625 49.472656 59.839844 C 47.402344 58.980469 29.226563 54.746094 26.273438 54.007813 C 21.507813 52.8125 11.960938 50.140625 7.324219 49.742188 Z M 37.203125 120.792969 C 36.585938 120.78125 27.035156 121.011719 27.894531 119.960938 C 34.375 119.117188 46.484375 119.296875 53.503906 119.082031 C 54.539063 119.050781 62.996094 119.476563 62.773438 117.835938 C 62.273438 114.214844 57.429688 111.011719 53.476563 110.824219 C 50.808594 110.695313 47.328125 111.097656 44.425781 111.097656 C 38.921875 110.878906 35.878906 111.285156 30.601563 110.644531 C 24.96875 109.957031 25.070313 112.015625 25.226563 117.601563 C 25.316406 120.683594 27.222656 119.257813 26.203125 120.917969 C 25.617188 121.871094 32.835938 128.539063 35.699219 128.160156 C 40.207031 127.765625 64.917969 128.84375 65.925781 124.734375 C 67.078125 120.0625 60.859375 120.988281 57.441406 120.894531 C 50.6875 120.710938 43.953125 120.847656 37.203125 120.792969 Z M 123.695313 81.453125 C 122.90625 76.441406 120.511719 77.761719 114.757813 77.273438 C 111.554688 77.003906 102.464844 76.863281 100.121094 75.738281 C 105.796875 73.867188 132.460938 82.292969 116.675781 67.417969 C 114.03125 64.929688 107.082031 58.945313 103.613281 62.507813 C 101.351563 64.820313 95.773438 72.1875 95.855469 75.316406 C 95.90625 77.269531 94.359375 75.085938 96.625 80.667969 C 100.390625 89.953125 100.101563 89.378906 110.191406 89.289063 C 112.257813 89.269531 122.726563 89.441406 123.878906 87.863281 C 124.902344 86.472656 123.90625 83.222656 123.695313 81.453125 Z M 20.53125 35.964844 C 11.453125 32.339844 13.59375 33.140625 9.269531 41.332031 C 5.167969 49.109375 6.097656 48.082031 14.429688 50.203125 C 24.925781 52.855469 35.839844 55.496094 46.394531 57.894531 C 51.527344 59.058594 51.539063 58.589844 54.953125 53.84375 C 59 48.21875 57.539063 48.859375 52.039063 46.894531 C 41.636719 43.175781 30.789063 39.878906 20.53125 35.964844 Z M 91.242188 74.980469 C 92.804688 73.828125 96.875 70.101563 93.324219 68.898438 C 89.464844 67.597656 80.261719 66.515625 75.335938 65.417969 C 73.390625 64.980469 59.652344 62.453125 58.8125 61.007813 C 58.3125 60.144531 61.082031 61.191406 62.058594 61.40625 C 66.964844 62.492188 94.21875 68.695313 97.085938 66.988281 C 98.230469 66.304688 102.386719 61.597656 100.148438 60.007813 C 97.964844 58.464844 75.109375 54.316406 69.5 52.574219 C 61.039063 49.941406 62.234375 47.867188 56.324219 55.234375 C 53.972656 58.160156 53.988281 60.222656 54.929688 63.820313 C 56.949219 71.519531 56.46875 70.566406 65.320313 72.035156 C 68.765625 72.609375 88.804688 76.222656 91.242188 74.980469 Z M 21.730469 5.964844 C 17.5 9.257813 13.261719 12.539063 9.035156 15.835938 C 10.65625 18.9375 25.097656 25.996094 29.101563 28.132813 C 35.640625 31.578125 93.59375 58.992188 89.90625 52.71875 C 89.855469 52.628906 69.691406 41.082031 67.578125 39.71875 C 51.660156 29.453125 36.777344 17.453125 21.730469 5.964844 Z M 60.085938 95.6875 C 57.523438 96.476563 57.527344 101.027344 57.292969 103.082031 C 56.988281 106.605469 56.609375 107.097656 59.925781 107.480469 C 57.097656 109.222656 60.703125 111.859375 62.609375 113.832031 C 69.132813 120.570313 68.722656 119.277344 78.09375 118.332031 C 81.039063 118.039063 102.625 116.351563 102.863281 113.203125 C 103.09375 110.1875 98.5625 107.152344 95.382813 106.992188 C 88.921875 106.671875 79.242188 107.726563 71.980469 107.777344 C 71.9375 107.777344 59.089844 107.996094 62.414063 107.03125 C 62.675781 106.957031 85.285156 106.191406 87.542969 105.96875 C 99.734375 104.75 95.203125 103.972656 95.207031 100.40625 C 95.210938 95.011719 89.464844 96.757813 84.984375 96.617188 C 77.636719 96.382813 66.988281 95.214844 60.085938 95.6875 Z M 48.363281 83.222656 C 37.238281 81.359375 27.929688 80.359375 16.988281 77.492188 C 21.921875 77.671875 48.910156 83.007813 50.789063 80.550781 C 52.246094 78.394531 55.285156 73.464844 51.527344 72.394531 C 45.871094 70.78125 19.664063 64.175781 15.410156 64.453125 C 14.269531 64.886719 10.382813 74.960938 11.484375 76.042969 C 13.710938 78.226563 11.792969 75.574219 13.351563 79.546875 C 13.828125 80.765625 18.972656 88.125 20.257813 88.617188 C 21.511719 89.097656 52.171875 92.054688 53.042969 91.832031 C 55.804688 91.125 51.742188 84.070313 49.980469 83.515625 Z M 69.339844 132.589844 C 74.214844 132.347656 75.582031 131.101563 71.390625 133.015625 C 67.644531 134.722656 74.53125 138.511719 76.332031 139.679688 C 81.378906 142.941406 85.75 140.539063 91.632813 139.136719 C 94.015625 138.570313 106.257813 135.921875 106.125 132.914063 C 105.785156 124.875 83.773438 130.871094 79.746094 131.539063 C 65.554688 133.902344 87.414063 128.945313 89.628906 128.546875 C 94.789063 127.617188 100.90625 126.570313 101.257813 120.125 C 101.503906 115.546875 92.714844 117.851563 89.523438 118.183594 C 86.621094 118.488281 70.859375 119.742188 69.683594 121.695313 C 69.027344 122.785156 67.71875 131.777344 68.511719 132.421875 Z M 136.152344 174.851563 C 137.359375 172.132813 142.417969 160.652344 134.800781 163.191406 C 131.425781 164.3125 129.808594 170.089844 127.019531 173.261719 C 129.960938 167.601563 131.492188 165.933594 126.574219 160.824219 C 124.117188 158.265625 118.757813 169.554688 118.921875 171.902344 C 119.066406 174.054688 122.347656 179.425781 125.550781 175.382813 C 127.832031 172.496094 123.996094 178.085938 126.59375 178.652344 C 129.859375 179.367188 134.59375 177.855469 136.152344 174.851563 Z M 147.570313 185.207031 C 155.804688 183.964844 157.277344 181.5 158.074219 173.488281 C 158.519531 168.984375 156.546875 168.304688 152.382813 169.96875 C 147.882813 171.765625 147 178.585938 146.699219 182.835938 L 146.859375 185.0625 Z M 201.46875 155.71875 L 201.46875 169.609375 C 209.175781 172.601563 206.734375 171.492188 206.105469 163.023438 C 205.894531 160.199219 205.457031 158.011719 205.132813 155.273438 C 203.988281 155.273438 203.074219 155.542969 201.46875 155.71875 Z M 201.351563 186.257813 C 202.5 187.0625 203.644531 187.507813 204.789063 187.949219 C 206.164063 188.484375 207.191406 189.460938 208.453125 189.199219 C 208.65625 186.175781 208.511719 174.105469 205.675781 172.824219 C 204.3125 172.210938 202.953125 171.988281 201.46875 172.011719 Z M 255.917969 164.539063 C 258.242188 168.355469 260.601563 171.332031 265.652344 170.171875 C 270.296875 169.109375 260.9375 161.027344 259.511719 159.6875 C 250.433594 151.179688 251.796875 157.320313 255.917969 164.539063 Z M 224.953125 168.011719 C 227.648438 167.386719 225.113281 163.417969 224.265625 160.824219 C 223.125 157.320313 221.457031 150.570313 216.730469 153.230469 C 213.71875 154.925781 216.425781 161.972656 217.144531 164.941406 C 217.921875 168.175781 222.320313 167.949219 224.953125 168.011719 Z M 209.179688 171.363281 C 217.148438 169.558594 216.144531 165.21875 214.453125 158.433594 C 213.476563 154.523438 212.484375 153.339844 208.355469 155.191406 C 207.726563 155.476563 207.609375 155.578125 207.191406 156.078125 C 206.824219 156.804688 207.214844 170.519531 209.179688 171.363281 Z M 230.65625 146.25 C 229.050781 149.800781 236.011719 159.101563 239.703125 160.5 C 240.703125 160.882813 245.152344 162.496094 244.390625 159.960938 C 243.464844 156.878906 234.496094 140.917969 230.65625 146.25 Z M 250.550781 175.273438 C 251.328125 175.109375 254.195313 180.242188 256.992188 173.707031 C 258.851563 169.355469 252.484375 157.867188 249.269531 161.386719 C 245.503906 165.511719 247.222656 168.03125 249.226563 172.746094 C 247.390625 170.695313 243.1875 161.292969 239.195313 163.101563 C 236.386719 164.371094 239.0625 180.117188 248.980469 178.671875 C 251.105469 178.359375 250.902344 176.980469 250.550781 175.273438 Z M 209.15625 178.257813 C 209.414063 181.816406 209.679688 185.371094 209.941406 188.929688 C 212.785156 188.730469 218.578125 185.03125 218.992188 182.90625 C 219.183594 181.914063 217.234375 172.367188 216.152344 170.65625 C 213.417969 170.679688 209.207031 173.761719 209.066406 176.652344 Z M 229.957031 184.128906 C 229.863281 179.832031 229.160156 171.492188 224.3125 169.96875 C 217.246094 167.746094 217.707031 170.644531 219.078125 177.03125 C 219.578125 179.378906 219.980469 180.832031 221.65625 182.554688 C 222.738281 183.308594 228.945313 185.972656 229.75 185.007813 Z M 239.53125 178.832031 C 239.835938 175.269531 238.386719 168.738281 235.582031 166.234375 C 233.78125 164.628906 229.457031 169.511719 229.816406 173.679688 C 229.972656 175.460938 231.097656 184.820313 233.246094 184.746094 C 235.765625 184.664063 238.511719 180.863281 239.53125 178.832031 Z M 227.433594 148.652344 C 218.640625 148.835938 227.378906 167.160156 229.710938 167.277344 C 232.710938 167.421875 235.035156 162.757813 234.097656 159.503906 C 233.296875 156.722656 230.355469 149.566406 227.433594 148.652344 Z M 248.613281 157.996094 C 258.867188 147.316406 223.265625 127.105469 241.976563 153.769531 C 243.492188 155.929688 245.84375 159.636719 248.613281 157.996094 Z M 272.851563 109.175781 C 275.21875 107.3125 276.695313 104.964844 277.824219 102.199219 C 274.714844 100.292969 262.558594 100.070313 258.277344 100.207031 C 249.085938 100.492188 251.203125 106.472656 258.910156 108.511719 C 261.894531 109.304688 270.011719 110.636719 272.851563 109.175781 Z M 308.511719 143.789063 C 309.886719 143.878906 310 144.054688 311.261719 144.234375 C 311.945313 144.324219 312.746094 144.324219 313.320313 144.324219 L 321.21875 144.945313 C 322.707031 144.945313 325.109375 144.855469 326.484375 145.039063 C 331.179688 145.835938 331.867188 144.855469 336.789063 141.832031 C 337.015625 141.742188 337.820313 141.386719 337.820313 141.296875 C 341.289063 138.765625 324.375 138.59375 323.507813 138.535156 C 321.714844 138.417969 319.921875 138.296875 318.125 138.179688 C 317.210938 138.089844 316.296875 138.179688 315.378906 138.179688 C 308.695313 137.472656 308.339844 136.558594 302.542969 141.007813 C 298.835938 143.851563 307.316406 143.796875 308.511719 143.789063 Z M 269.863281 168.464844 C 271.769531 168.097656 276.363281 160.53125 275.433594 158.722656 C 274.34375 156.613281 258.914063 144.359375 256.285156 150.789063 C 254.746094 154.546875 268.425781 168.460938 269.863281 168.464844 Z M 277.425781 93.511719 C 275.71875 89.71875 272.023438 90.464844 267.976563 90.304688 C 263.800781 90.019531 252.546875 87.882813 252.941406 94.550781 C 253.167969 98.402344 256.546875 98.730469 259.9375 99.21875 C 263.324219 99.707031 275.371094 101.121094 277.4375 99.621094 C 279.527344 98.109375 278.097656 95.351563 277.425781 93.511719 Z M 328.199219 109.3125 C 332.535156 109.503906 349.628906 109.667969 352.082031 107.9375 C 354.144531 106.484375 356.496094 103.734375 357.570313 101.453125 C 354.28125 99.738281 344 101.757813 339.597656 102.019531 C 337.453125 102.144531 322.601563 102.496094 322.097656 104.628906 C 321.695313 106.324219 322.367188 108.871094 324.109375 109.351563 C 325.113281 109.625 326.996094 109.304688 328.199219 109.3125 Z M 311.714844 135.777344 C 312.976563 136.664063 316.640625 136.847656 318.355469 137.109375 C 318.890625 137.191406 339.125 138.839844 339.382813 138.796875 C 341.046875 138.496094 340.335938 134.882813 340.230469 133.578125 C 339.820313 128.3125 339.386719 129.519531 333.890625 129.429688 C 328.824219 129.34375 327.617188 129.339844 322.328125 128.699219 C 320.492188 128.480469 312.140625 127.613281 311.855469 130.003906 C 311.746094 130.875 312.246094 132.355469 312.175781 133.726563 C 311.832031 134.972656 311.601563 134.351563 311.714844 135.777344 Z M 354.273438 99.25 C 357.382813 98.71875 361.089844 100.820313 357.308594 92.757813 C 355.789063 89.503906 351.054688 91.058594 347.53125 91.503906 C 344.53125 91.882813 323.628906 93.789063 322.53125 94.164063 C 319.972656 95.042969 320.113281 97.140625 320.972656 99.433594 C 322.089844 102.390625 326.410156 101.398438 329.007813 101.285156 C 336.007813 100.984375 343.765625 100.441406 350.742188 99.761719 C 351.960938 99.640625 353.066406 99.445313 354.273438 99.25 Z M 305.867188 120.683594 C 302.546875 120.074219 275.085938 115.546875 275.195313 118.976563 C 275.261719 121.195313 276.429688 125.535156 278.625 126.464844 C 284.339844 128.875 294.683594 129.203125 302.023438 131.980469 C 294.144531 131.882813 275.835938 125.421875 271.035156 130.605469 C 266.035156 136 280.179688 137.730469 283.527344 138.605469 C 288.167969 139.820313 293.078125 141.171875 297.871094 141.429688 C 298.863281 141.164063 306.40625 135.34375 306.773438 134.269531 C 307.25 132.871094 303.976563 132.925781 302.347656 132.042969 C 308.542969 132.269531 310.054688 136.15625 307.441406 123.835938 C 307.0625 122.0625 307.308594 121.285156 305.867188 120.683594 Z M 317.574219 73.332031 C 313.882813 73.382813 284.617188 77.199219 283.511719 78.4375 C 282.214844 79.890625 281.453125 82.445313 281.539063 84.363281 C 288.675781 86.203125 309.160156 83.367188 317.824219 82.945313 C 323.40625 82.765625 324.191406 81.042969 321.09375 76.09375 C 320.078125 74.476563 319.382813 73.8125 317.574219 73.332031 Z M 256.191406 130.03125 C 254.5 129.40625 244.613281 125.269531 245.753906 130.429688 C 246.5 133.796875 268.90625 146.84375 252.53125 137.882813 C 231.03125 126.113281 245.285156 149.710938 254.671875 148.917969 C 263.050781 148.214844 272.0625 136.460938 260.539063 131.683594 C 259.140625 131.101563 257.617188 130.570313 256.191406 130.03125 Z M 321.445313 83.410156 C 320.011719 83.082031 294.882813 86.230469 291.152344 86.441406 C 286.816406 86.636719 275.027344 86.160156 280.039063 93.75 C 281.730469 96.3125 289.550781 95.214844 292.203125 95.128906 C 297.640625 94.957031 313.164063 94.464844 317.933594 93.179688 C 319.523438 92.472656 324.113281 84.875 321.445313 83.410156 Z M 271.949219 114.96875 C 268.484375 109.785156 263.398438 109.96875 257.234375 109.070313 C 249.410156 107.929688 249.0625 115.761719 254.636719 118.320313 C 257.007813 119.40625 269.34375 122.597656 269.613281 123.304688 C 266.214844 122.8125 251.820313 117.835938 249.878906 119.953125 C 242.859375 127.628906 263.964844 133.0625 268.636719 130.246094 C 270.910156 128.878906 274.578125 122.828125 273.621094 119.398438 C 273.195313 117.871094 272.5625 116.421875 271.949219 114.96875 Z M 295 143.511719 C 292.242188 141.542969 282.976563 139.8125 278.644531 138.425781 C 275.808594 137.515625 267.101563 134.320313 267.929688 140.496094 C 268.734375 146.476563 283.222656 149.121094 285.433594 152.089844 C 281.953125 151.476563 266.097656 142.578125 264.78125 147.589844 C 264.011719 150.527344 277.335938 158.757813 279.296875 158.660156 C 281.636719 158.550781 288.671875 156.703125 290.878906 155.628906 C 290.15625 153.859375 287.058594 152.925781 289.824219 153.472656 C 293.671875 154.230469 293.273438 157.195313 294.832031 148.699219 C 295.113281 147.148438 295.917969 144.894531 295 143.511719 Z M 367.601563 18.027344 C 363.378906 19.851563 358.507813 23.585938 353.929688 25.980469 C 337.117188 34.792969 321.820313 42.40625 304.144531 49.496094 C 280.492188 58.980469 309.410156 50.921875 314.628906 49.007813 C 316.582031 48.296875 316.085938 48.167969 318.917969 47.46875 C 323.660156 46.296875 364.820313 32.167969 366.261719 29.820313 C 366.394531 29.597656 370.175781 18.289063 368.261719 17.90625 Z M 368.40625 50.085938 C 357.457031 51.339844 344.988281 55.652344 333.878906 58.203125 C 327.160156 59.746094 324.15625 61.054688 323.09375 68.246094 C 322.496094 72.289063 327.078125 70.382813 330.003906 69.675781 C 334.917969 68.492188 362.0625 62.546875 364.351563 60.40625 C 366.128906 58.734375 370.304688 52.457031 369.496094 50.121094 Z M 340.203125 128.039063 C 343.789063 128.566406 347.019531 125.140625 349.46875 122.832031 C 352.125 120.320313 349.039063 121.457031 350.847656 119.574219 C 351.878906 118.503906 352.179688 110.257813 349.238281 110.359375 C 344.6875 110.507813 343.75 111.097656 338.597656 110.855469 C 333.84375 110.625 330.058594 111.265625 324.570313 110.871094 C 319.921875 110.535156 317.660156 111.78125 314.761719 115.882813 C 312.015625 119.761719 315.125 119.191406 318.734375 119.421875 C 321.320313 119.585938 348.613281 119.941406 348.71875 120 C 348.320313 121.160156 341.070313 120.753906 339.488281 120.785156 C 336.714844 120.839844 313.589844 120.835938 312.464844 121.160156 C 310.617188 121.691406 310.453125 122.863281 310.851563 124.757813 C 311.46875 127.703125 316.230469 127.171875 319.113281 127.328125 C 325.691406 127.6875 333.996094 127.351563 340.203125 128.039063 Z M 269.949219 75.722656 C 281.785156 74.945313 276.179688 76.484375 268.117188 76.835938 C 264.871094 76.976563 254.386719 76.433594 253.132813 80.167969 C 249.90625 89.769531 255.65625 89.132813 263.222656 89.367188 C 265.894531 89.449219 274.933594 90.070313 276.652344 87.753906 C 278.460938 85.3125 281.644531 78.6875 280.886719 75.679688 C 279.574219 70.488281 279.722656 71.453125 276.050781 66.175781 C 270.839844 58.6875 267.605469 60.589844 260.910156 66.679688 C 248.570313 77.917969 260.015625 76.417969 269.949219 75.722656 Z M 363.335938 34.199219 C 360.761719 33.398438 347.585938 39.015625 344.566406 40.066406 C 341.367188 41.175781 320.34375 47.707031 319.671875 49.515625 C 319.019531 51.277344 324.914063 58.78125 326.648438 58.539063 C 331.945313 57.800781 341.5625 55.175781 347.027344 53.878906 C 349.425781 53.3125 369.023438 48.96875 369.734375 47.847656 C 370.523438 46.589844 364.402344 35.003906 363.335938 34.199219 Z M 322.367188 59.628906 C 323.4375 57.695313 316.3125 50.113281 314.257813 50.292969 C 310.824219 50.582031 302.117188 54.402344 296.585938 55.234375 C 293.773438 55.710938 276.375 58.742188 275.667969 60.558594 C 275.070313 62.101563 278.699219 67.570313 281.953125 67.453125 C 290.574219 67.152344 312.808594 60.808594 318.035156 61.167969 C 319.167969 61.894531 292.097656 67.121094 287.925781 67.871094 C 283.773438 68.605469 278.84375 69.167969 284.183594 73.910156 C 287.582031 76.929688 293.824219 74.855469 297.804688 74.113281 C 302.996094 73.28125 317.4375 72.691406 320.226563 68.203125 C 322.847656 63.988281 321.675781 61.253906 322.367188 59.628906 Z M 317.203125 107.53125 C 322.027344 106.953125 318.453125 96.597656 316.945313 95.941406 C 314.273438 95.339844 283.222656 96.445313 282 97.320313 C 280.808594 98.167969 282.074219 99.625 281.203125 102.242188 C 279.890625 106.195313 286.476563 105.941406 289.136719 106.003906 L 291.460938 106.058594 C 296.792969 106.339844 301.042969 106.558594 306.359375 106.636719 C 309.183594 106.679688 311.039063 107.476563 313.703125 107.039063 C 314.328125 106.933594 314.382813 107.078125 314.628906 107.617188 C 309.148438 107.703125 279.6875 106.550781 277.289063 107.917969 C 273.148438 110.28125 272.300781 114.457031 278.761719 115.796875 C 285.769531 117.246094 295.640625 117.859375 302.929688 118.382813 C 311.375 118.941406 306.363281 120.769531 315.101563 112.621094 C 319.789063 108.25 317.195313 108.457031 316.851563 107.609375 Z M 354.671875 6.210938 C 352.144531 7.359375 324.945313 28.871094 322.253906 30.886719 C 312.960938 37.839844 299.417969 46.171875 288.699219 51.421875 C 285.992188 52.746094 284.9375 54.71875 289.683594 53.4375 C 302.84375 49.890625 329.125 37.148438 342.109375 30.789063 C 346.214844 28.78125 365.351563 19.316406 367.121094 16.507813 C 367.953125 15.179688 366.898438 15.265625 364.910156 13.613281 C 362.945313 11.972656 356.835938 6.335938 354.671875 6.210938 Z M 361.179688 82.796875 C 363.007813 80.207031 363.046875 80.652344 363.832031 77.519531 C 364.453125 75.050781 367.359375 78.28125 363.777344 69.554688 C 361 62.785156 362.664063 63.582031 352.957031 65.71875 C 345.003906 67.464844 336.1875 69.277344 328.3125 71.222656 C 323.621094 72.378906 321.542969 74.378906 324.882813 78.945313 C 327.492188 82.507813 334.859375 80.84375 338.609375 80.390625 C 343.226563 79.832031 355.371094 77.410156 359.511719 77.503906 C 357.726563 77.855469 327.046875 83.523438 326.4375 83.855469 C 324.910156 84.695313 319.722656 91.953125 326.507813 91.863281 C 331.398438 91.792969 354.628906 89.648438 356.824219 88.234375 C 358.628906 87.070313 360.023438 84.601563 361.179688 82.796875 Z M 201.699219 141.832031 C 200.898438 143.96875 201.351563 151 201.351563 153.671875 C 234.621094 150.75 250.9375 127.109375 250.226563 95.007813 C 249.789063 75.433594 249.097656 69.375 268.050781 59.636719 C 287.996094 49.835938 308.152344 39.847656 325.722656 26.054688 C 336.582031 17.375 313.839844 31.40625 312.925781 31.925781 C 291.40625 43.976563 267.984375 53.644531 243.765625 58.492188 C 237.910156 59.667969 234.257813 60.308594 228.402344 60.777344 C 222.257813 61.269531 216.289063 66.132813 218.398438 73.359375 C 222.640625 85.25 233.261719 89.800781 234.175781 107.269531 C 235.035156 123.644531 224.628906 136.546875 208.800781 140.277344 L 204.195313 141.195313 Z M 184.066406 196.230469 L 186.011719 196.230469 C 186.003906 149.917969 185.632813 103.613281 186.226563 57.304688 C 186.277344 53.199219 186.328125 62.191406 186.328125 62.320313 C 186.558594 106.957031 186.472656 151.59375 186.472656 196.230469 L 187.957031 196.230469 C 187.957031 142.066406 187.957031 87.90625 187.957031 33.742188 L 181.433594 40.152344 L 177.042969 43.988281 C 177.082031 94.695313 177.867188 145.269531 177.097656 195.988281 C 183.164063 196.324219 181.441406 197.804688 181.335938 188.886719 C 180.816406 146.40625 181.175781 103.9375 181.296875 61.457031 C 181.316406 54.527344 181.167969 47.035156 181.449219 40.140625 C 181.660156 39.925781 181.535156 40.058594 181.648438 39.945313 C 181.738281 41.402344 181.609375 54.917969 181.777344 78.882813 C 181.777344 117.996094 181.777344 157.113281 181.777344 196.230469 C 184.828125 196.230469 183.722656 196.035156 183.726563 192.503906 C 183.792969 140.925781 183.960938 89.351563 183.855469 37.777344 C 183.652344 37.972656 183.789063 37.839844 183.574219 38.046875 C 183.816406 90.773438 184.101563 143.5 184.066406 196.230469 Z M 188.761719 196.230469 L 199.523438 196.230469 L 199.523438 44.070313 L 188.878906 33.652344 C 188.871094 44.125 188.863281 54.59375 188.855469 65.058594 C 188.839844 89.078125 188.820313 113.09375 188.804688 137.109375 C 188.789063 156.203125 188.773438 175.292969 188.761719 194.382813 Z M 188.761719 196.230469 "/>
</g>
<path style=" stroke:none;fill-rule:evenodd;fill:rgb(0%,0%,0%);fill-opacity:1;" d="M 188.984375 196.007813 L 199.300781 196.007813 L 199.300781 44.164063 L 189.097656 34.179688 C 189.058594 88.121094 189.023438 142.066406 188.984375 196.007813 Z M 199.523438 196.453125 L 188.539063 196.453125 L 188.539063 196.230469 C 188.5625 159.898438 188.589844 123.566406 188.617188 87.230469 C 188.628906 69.371094 188.640625 51.515625 188.65625 33.652344 L 188.65625 33.125 L 189.03125 33.496094 L 199.679688 43.910156 L 199.746094 43.980469 L 199.746094 196.453125 Z M 199.523438 196.453125 "/>
<path style=" stroke:none;fill-rule:evenodd;fill:rgb(0%,0%,0%);fill-opacity:1;" d="M 189.207031 195.785156 L 199.078125 195.785156 L 199.078125 44.253906 L 189.320313 34.707031 C 189.300781 59.394531 189.285156 84.082031 189.265625 108.765625 C 189.257813 120.492188 189.25 132.21875 189.242188 143.941406 C 189.230469 161.222656 189.214844 178.503906 189.207031 195.785156 Z M 188.878906 33.652344 L 189.21875 33.988281 Z M 199.523438 196.675781 L 188.316406 196.675781 L 188.316406 196.230469 C 188.324219 184.53125 188.332031 172.828125 188.339844 161.128906 C 188.351563 149.429688 188.359375 137.730469 188.367188 126.027344 L 188.367188 124.179688 C 188.386719 100.164063 188.402344 76.148438 188.417969 52.128906 C 188.421875 46.585938 188.425781 41.042969 188.433594 35.5 L 188.433594 32.597656 L 188.808594 32.964844 L 189.183594 33.335938 L 189.1875 33.335938 L 199.832031 43.753906 L 199.902344 43.820313 L 199.96875 43.886719 L 199.96875 196.675781 Z M 199.523438 196.675781 "/>
<path style=" stroke:none;fill-rule:evenodd;fill:rgb(0%,0%,0%);fill-opacity:1;" d="M 178.226563 221.875 C 180.257813 221.875 196.824219 221.875 198.492188 221.875 C 198.492188 220.257813 198.492188 203.765625 198.492188 201.839844 C 196.582031 201.839844 179.457031 201.839844 178.226563 201.839844 C 178.226563 202.816406 178.226563 220.21875 178.226563 221.875 Z M 185.214844 208.339844 C 182.808594 208.609375 185.214844 208.339844 179.03125 209.140625 L 183.496094 213.234375 C 182.921875 215.105469 183.496094 213.234375 181.664063 220.269531 C 188.304688 216.707031 181.132813 220.457031 188.304688 216.707031 C 194.941406 220.269531 188.515625 216.863281 194.941406 220.269531 C 193.34375 213.328125 193.796875 215.105469 193.34375 213.328125 L 197.691406 209.230469 C 191.507813 208.339844 193.796875 208.609375 191.507813 208.339844 C 190.476563 206.914063 191.507813 208.339844 188.304688 202.640625 C 185.214844 208.339844 186.359375 206.734375 185.214844 208.339844 Z M 185.214844 208.339844 "/>
<path style=" stroke:none;fill-rule:evenodd;fill:rgb(0%,0%,0%);fill-opacity:1;" d="M 182.0625 39.460938 C 182.0625 91.84375 182.0625 144.226563 182.0625 196.609375 C 181.722656 196.609375 181.375 196.609375 181.03125 196.609375 C 181.03125 144.226563 181.03125 91.84375 181.03125 39.460938 Z M 182.0625 39.460938 "/>
<path style=" stroke:none;fill-rule:evenodd;fill:rgb(0%,0%,0%);fill-opacity:1;" d="M 184.386719 37.113281 C 184.386719 90.277344 184.386719 143.445313 184.386719 196.609375 L 183.355469 196.609375 C 183.355469 143.445313 183.355469 90.277344 183.355469 37.113281 Z M 184.386719 37.113281 "/>
<path style=" stroke:none;fill-rule:evenodd;fill:rgb(0%,0%,0%);fill-opacity:1;" d="M 186.710938 34.832031 C 186.710938 88.757813 186.710938 142.683594 186.710938 196.609375 L 185.683594 196.609375 C 185.683594 142.683594 185.683594 88.757813 185.683594 34.832031 Z M 186.710938 34.832031 "/>
<path style=" stroke:none;fill-rule:evenodd;fill:rgb(0%,0%,0%);fill-opacity:1;" d="M 179.609375 41.054688 C 179.609375 92.90625 179.605469 144.757813 179.609375 196.609375 C 179.265625 196.609375 178.917969 196.609375 178.578125 196.609375 C 178.582031 144.757813 178.578125 92.90625 178.578125 41.054688 Z M 179.609375 41.054688 "/>
</g>
</svg>
