<?xml version="1.0" encoding="utf-8"?>
<!-- Generator: Adobe Illustrator 25.0.1, SVG Export Plug-In . SVG Version: 6.00 Build 0)  -->
<svg version="1.1" id="Layer_1" xmlns="http://www.w3.org/2000/svg" xmlns:xlink="http://www.w3.org/1999/xlink" x="0px" y="0px"
	 viewBox="0 0 1200 1200" style="enable-background:new 0 0 1200 1200;" xml:space="preserve">
<style type="text/css">
	.st0{fill:#231F20;}
</style>
<polygon class="st0" points="635.01,643.24 635.13,643.35 634.83,320.13 599.74,287.46 564.58,322.2 564.88,643.33 564.99,643.24 
	564.89,650.84 564.96,723.06 597.98,723.19 598.06,310.39 601.35,310.39 601.27,723.2 635.2,723.2 635.14,653.86 635.01,653.58 "/>
<polygon class="st0" points="665.17,783.46 709.66,791.49 709.66,745.03 665.17,754.3 "/>
<polygon class="st0" points="543.01,754.3 498.51,745.03 498.51,791.49 543.01,783.46 "/>
<path class="st0" d="M649.6,730.4h-91.02v13.66l-75.65-15.76v79.89l75.65-13.66v11.57h91.02v-11.57l75.65,13.66v-79.89l-75.65,15.76
	V730.4z M546.31,786.21l-51.08,9.22v-54.46l51.08,10.65V786.21z M661.88,751.62l51.08-10.65v54.46l-51.08-9.22V751.62z
	 M639.12,797.63h-70.05v-58.79h70.05V797.63z"/>
<polygon class="st0" points="635.96,742.01 604.33,742.01 612.65,759.29 633.13,761.62 617.97,775.04 621.98,794.33 604.09,784.72 
	586.19,794.33 590.2,775.04 575.05,761.62 595.53,759.29 603.84,742.01 572.23,742.01 572.23,794.47 635.96,794.47 "/>
<polygon class="st0" points="593.66,773.89 590.66,788.35 604.09,781.14 617.51,788.35 614.51,773.89 625.72,763.96 610.56,762.24 
	604.09,748.78 597.62,762.24 582.45,763.96 "/>
<path class="st0" d="M567.89,879.18l62.83-14.72c5.34-1.3,10.03-10.72,10.03-20.18c0-6.03-1.87-11.29-4.87-13.72
	c-1.08-0.88-2.23-1.32-3.42-1.32c-0.35,0-0.71,0.04-1.07,0.12l-62.85,14.72c-4.59,0.89-9.67,9.54-9.67,19.82
	c0,6.03,1.87,11.36,4.87,13.92C565.08,878.95,566.45,879.41,567.89,879.18z"/>
<path class="st0" d="M567.89,840.57l62.83-14.72c4.04-0.98,7.75-6.21,9.28-12.94l-78.18-0.25c-1.96,3.93-2.95,8.17-2.95,12.62
	c0,6.03,1.87,11.36,4.87,13.92C565.08,840.33,566.48,840.79,567.89,840.57z"/>
<path class="st0" d="M647.74,941.47h-95.18c-5.33,0.03-9.05,2.47-9.05,4.64s3.72,4.62,9.06,4.65l14.39-0.17l69.72-0.04l-0.01,0.07
	l11.1,0.15c5.23-0.03,8.9-2.47,8.9-4.65S653,941.49,647.74,941.47z"/>
<path class="st0" d="M640.75,921.52c0-6.03-1.87-11.29-4.87-13.72c-1.4-1.13-2.9-1.55-4.49-1.2l-62.85,14.72
	c-4.77,0.76-8.17,7.1-8.95,16.35l76.87,0.66C638.97,934.41,640.75,927.51,640.75,921.52z"/>
<path class="st0" d="M632.98,953.67l-64.55-0.03c3.15,13.06,16.38,22.37,32.18,22.37C616.22,976.01,629.76,966.53,632.98,953.67z"/>
<path class="st0" d="M567.89,917.8l62.83-14.72c5.34-1.29,10.03-10.72,10.03-20.18c0-6.04-1.87-11.3-4.87-13.73
	c-1.08-0.88-2.23-1.32-3.42-1.32c-0.35,0-0.71,0.04-1.07,0.12l-62.85,14.72c-4.59,0.89-9.67,9.55-9.67,19.82
	c0,6.03,1.87,11.36,4.87,13.91C565.08,917.57,566.48,918.03,567.89,917.8z"/>
<polygon class="st0" points="543.98,707.47 544.44,707.31 543.51,707.01 "/>
<polygon class="st0" points="434.44,689.15 434.56,689.13 434.03,688.76 "/>
<path class="st0" d="M445.49,588.21l-19.8,17.52l0.01,0.04l2.23,13.09l11.86,8.49l24.78-24.87
	C457.8,598.17,451.41,593.4,445.49,588.21z"/>
<polygon class="st0" points="362.87,557.29 365.31,548.51 349.28,549.09 349.46,548.46 248.03,549.83 241.5,560.69 233.79,582.21 
	236.99,581.91 "/>
<path class="st0" d="M433.92,576.82c-0.77-0.84-1.52-1.7-2.26-2.56l-39.36,18.04l9.45,7.66l20.97,4.16l20.41-18.05
	C439.91,583.13,436.84,580.04,433.92,576.82z"/>
<polygon class="st0" points="365.34,559.9 365.37,560.02 235.77,585.19 271.94,604.99 271.64,605.53 383.78,576.73 387.34,563.62 
	"/>
<polygon class="st0" points="158.04,590.7 158.94,591.25 158.78,589.52 "/>
<path class="st0" d="M419.9,558.45l-29.33,5.34l-3.9,14.37l3.63,11.58l39.25-17.99C426.05,567.5,422.83,563.06,419.9,558.45z"/>
<polygon class="st0" points="334.42,492.44 335.11,474.36 194.5,463.7 223.69,492.8 "/>
<polygon class="st0" points="350.34,545.29 355.94,525.11 212.22,522.09 246.93,546.68 "/>
<polygon class="st0" points="344.06,454.95 334.41,441.68 203.45,436.85 192.02,460.34 335.81,471.23 "/>
<polygon class="st0" points="335.35,495.6 223.17,495.95 209.22,518.87 354.11,521.94 "/>
<path class="st0" d="M467.34,604.18l-23.78,23.87l20.89,2.03l15.79-18.85C475.81,609.05,471.5,606.7,467.34,604.18z"/>
<path class="st0" d="M333.54,438.48l0.57-14.18l-3.04-10.05c-45.32-3.59-97.93-8.51-151.01-16.59l22.96,36.03L333.54,438.48z"/>
<path class="st0" d="M499.43,619.24l-16.66,23.8l7.25,7.09l19.39-2.86l13.37-21.54C514.76,624.05,506.95,621.88,499.43,619.24z"/>
<polygon class="st0" points="545.37,665.88 554.39,669.81 561.82,653.24 561.82,650.52 "/>
<path class="st0" d="M483.18,612.63l-16.36,19.54l0.65,10.83l12.53-1.52l16.34-23.35C491.85,616.46,487.46,614.63,483.18,612.63z"/>
<path class="st0" d="M526.08,626.41l-13.53,21.8l5.6,10.09l10.15-0.29l18.25-28.76C539.61,628.65,532.78,627.7,526.08,626.41z"/>
<path class="st0" d="M343.16,380.16c62.78,15.98,61.52,35.43,58.47,82.42c-3.77,44.2,8.21,82.95,34.63,112.11
	c29.45,32.49,75.21,51.5,125.57,52.15l-0.04,3.16c-3.92-0.05-7.81-0.21-11.67-0.48l-19.17,30.21l0.31,7.07l10.73-2.12l21.36-19.94
	l-0.27-44.9c-0.52-0.06-1.02-0.15-1.54-0.21c-80.82-10.12-150.03-71.94-82.53-176.08c17.48-25.24,17-63.2-43.31-62.96
	c-139.77-6.63-217.79-45.83-337.25-118.42C142.23,287.51,219.66,347.35,343.16,380.16z"/>
<polygon class="st0" points="445.98,631.46 440.66,630.95 440.52,631.09 440.34,630.91 439.21,630.81 426.12,621.45 358.76,674.01 
	412.8,669.79 411.63,668.71 "/>
<path class="st0" d="M346.66,395l0.48,0.96l-0.71,0.8c-3.51,3.97-5.49,7.06-7.78,10.64c-1.23,1.92-2.55,3.97-4.21,6.34l-0.15,0.21
	l2.61,8.62l62.58,10.67c-1.08-25.64-11.52-38.41-57.11-50.02c-0.09-0.02-0.18-0.05-0.27-0.07c0.71,1.68,1.31,3.41,1.9,5.11
	C344.83,390.65,345.61,392.91,346.66,395z"/>
<path class="st0" d="M336.67,439.42l10.23,14.05l51.81,5.32c0.54-8.36,0.95-15.75,0.87-22.32l-62.35-10.63L336.67,439.42z"/>
<polygon class="st0" points="422.76,607.37 403.72,603.59 346.75,644.06 355.07,672.88 424.67,618.56 "/>
<polygon class="st0" points="160.66,592.3 193.7,612.45 268.73,606.83 230.15,585.72 "/>
<polygon class="st0" points="399.82,602.48 389.09,593.78 289.42,638.99 345.71,643.3 344.59,641.72 "/>
<path class="st0" d="M398.5,461.95l-51.75-5.32l-8.44,16.65l-0.73,19.13l60.71-0.68c-0.74-9.49-0.69-19.3,0.18-29.39
	C398.49,462.22,398.49,462.09,398.5,461.95z"/>
<polygon class="st0" points="383.91,579.96 271.25,608.9 285.84,637.14 387.4,591.07 "/>
<polygon class="st0" points="542.98,668.29 529.99,693.4 529.01,692.89 542.53,706.05 553.25,672.77 "/>
<polygon class="st0" points="486.97,651.58 479.9,644.67 467.21,646.22 437.77,688.43 470.4,681.35 469.72,680.95 "/>
<polygon class="st0" points="463.72,633.19 449.93,631.84 414.57,670.18 433.82,688.56 464.41,644.69 "/>
<path class="st0" d="M339.21,495.56L358,521.95l43.35-9.13c-1.26-5.83-2.18-11.8-2.78-17.92L339.21,495.56z"/>
<path class="st0" d="M366.28,556.86l23.23,3.92l28.6-5.21c-3.4-5.65-6.38-11.54-8.93-17.66l-40.59,10.63L366.28,556.86z"/>
<path class="st0" d="M353.49,545.77l15.25-0.56l39.25-10.28c-2.4-6.13-4.38-12.48-5.93-19.03l-42.76,8.97L353.49,545.77z"/>
<path class="st0" d="M175.9,397.02c-38.23-5.94-76.59-13.56-112.6-23.51l-7.89,25.42c51.93,14.18,98.91,25.38,143.51,34.2
	L175.9,397.02z"/>
<path class="st0" d="M93.94,242.08l1.7-1.62c-10.3-6.27-20.87-12.76-31.86-19.52c-10.71,13.7-21.42,27.4-32.14,41.1
	c74.57,35.23,142.65,62.65,207.3,83.48C171.04,313.17,124.14,273.83,93.94,242.08z"/>
<path class="st0" d="M176.39,393.89l10.72-18.14c-48.61-9.78-99.86-22.93-156.47-40.12l15.51,31.22l15.7,4.55l0.4-1.44
	C98.67,380.13,137.6,387.87,176.39,393.89z"/>
<polygon class="st0" points="539.34,668.45 528.26,670.63 527.86,661.19 517.87,661.48 492.76,699.27 528.49,692.62 527.18,691.95 
	"/>
<path class="st0" d="M187.47,354.07c-49.94-14.76-95.36-34.23-138.17-58.96l-19.38,37.01c57.19,17.4,108.88,30.68,157.88,40.54
	L187.47,354.07z"/>
<path class="st0" d="M188.62,460.09l11.45-23.52c-44.97-8.83-92.08-20.03-144.12-34.21l26.94,41.82l10.66,2.13l0.29-1.76
	L188.62,460.09z"/>
<path class="st0" d="M326.28,378.73c-23.47-6.9-45.19-14.76-65.27-23.28l-0.07,0.25c-71.07-21.44-145.93-50.88-228.74-89.91
	l17.14,27.73l0.88-1.52C129.24,337.8,217.26,365.49,326.28,378.73z"/>
<polygon class="st0" points="510.13,650.37 489.57,653.4 472.62,682.26 489.93,697.81 515.29,659.65 "/>
<polygon class="st0" points="241.17,546.47 206.32,521.79 130.58,512.94 117.28,535.75 118.13,536.44 118.38,534 "/>
<polygon class="st0" points="239.58,557.68 244.12,549.96 119.15,537.27 150.69,562.74 173.73,564.31 173.63,563.24 "/>
<polygon class="st0" points="218.69,492.27 189.65,463.33 187.73,463.18 93.8,447.74 81.61,476.23 82.2,477.05 82.43,475.18 "/>
<path class="st0" d="M335.99,405.68c2.21-3.45,4.14-6.46,7.39-10.23c-0.92-2-1.66-4.11-2.37-6.15c-0.73-2.09-1.42-4.08-2.28-5.95
	c-53.98-5.91-102.88-15.22-148.08-28.35l0.36,20.37l-11.25,19.04c53.66,8.2,106.89,13.16,152.61,16.77
	C333.76,409.16,334.91,407.37,335.99,405.68z"/>
<polygon class="st0" points="238.07,560.98 173.91,566.39 173.84,565.58 158.93,589.28 230.31,582.54 "/>
<polygon class="st0" points="205.71,518.54 219.69,495.57 83.2,478.47 105.82,510.57 129.91,511.65 130.14,509.7 "/>
<polygon class="st0" points="563.69,700.6 563.43,657.39 556.67,672.46 545.57,706.92 561.65,701.31 "/>
<polygon class="st0" points="864.65,495.6 845.86,521.98 990.78,518.87 976.83,495.93 "/>
<path class="st0" d="M1009.35,355c-45.2,13.13-94.09,22.43-148.07,28.35c-0.87,1.88-1.57,3.88-2.3,5.97
	c-0.71,2.04-1.44,4.14-2.35,6.13c3.24,3.78,5.17,6.79,7.39,10.24c1.08,1.68,2.22,3.46,3.61,5.48c45.72-3.61,98.95-8.56,152.61-16.76
	l-11.26-19.04L1009.35,355z"/>
<path class="st0" d="M1011.38,460.08l0.65-0.05l94.14-15.49l0.29,1.76l10.66-2.13l26.94-41.82
	c-52.15,14.21-99.33,25.42-144.11,34.23L1011.38,460.08z"/>
<polygon class="st0" points="834.63,560.02 834.66,559.9 812.66,563.62 816.23,576.73 928.36,605.53 928.06,604.99 964.22,585.2 
	962.71,585.06 "/>
<path class="st0" d="M766.08,576.82c-2.91,3.22-5.98,6.3-9.2,9.26l20.4,18.05l20.97-4.16l9.45-7.66l-39.36-18.04
	C767.6,575.13,766.85,575.98,766.08,576.82z"/>
<path class="st0" d="M653.44,629.26l18.25,28.76l10.16,0.29l5.6-10.09l-13.53-21.8C667.23,627.7,660.39,628.65,653.44,629.26z"/>
<polygon class="st0" points="850.55,548.46 850.72,549.09 834.69,548.51 837.13,557.29 963.16,581.93 966.21,582.22 957.97,559.96 
	951.97,549.83 "/>
<path class="st0" d="M703.66,618.12L720,641.47l12.53,1.52l0.65-10.83l-16.35-19.54C712.54,614.63,708.15,616.46,703.66,618.12z"/>
<polygon class="st0" points="849.67,545.29 953.07,546.68 987.79,522.09 844.08,525.15 "/>
<path class="st0" d="M1001.07,433.15c44.42-8.8,91.48-20.01,143.53-34.22l-7.9-25.42c-36.02,9.95-74.37,17.57-112.6,23.51
	L1001.07,433.15z"/>
<path class="st0" d="M677.23,625.74l13.37,21.54l19.39,2.86l7.25-7.09l-16.66-23.8C693.05,621.88,685.24,624.05,677.23,625.74z"/>
<path class="st0" d="M735.42,602.47l24.78,24.86l11.86-8.49l2.24-13.13l-19.8-17.52C748.59,593.41,742.21,598.17,735.42,602.47z"/>
<path class="st0" d="M853.1,453.47l10.23-14.05l-0.55-13.59l-62.34,10.63c-0.09,6.58,0.33,13.96,0.86,22.32L853.1,453.47z"/>
<path class="st0" d="M865.71,413.95l-0.16-0.22c-1.66-2.37-2.97-4.41-4.2-6.33c-2.29-3.58-4.28-6.68-7.79-10.65l-0.71-0.8l0.48-0.96
	c1.05-2.09,1.83-4.33,2.66-6.71c0.59-1.7,1.2-3.45,1.91-5.13c-0.09,0.02-0.18,0.05-0.26,0.07c-45.59,11.6-56.04,24.37-57.12,50.02
	l62.58-10.67L865.71,413.95z"/>
<path class="st0" d="M1012.2,372.66c49.02-9.86,100.71-23.13,157.88-40.54l-19.38-37.01c-42.81,24.74-88.23,44.2-138.17,58.96
	L1012.2,372.66z"/>
<polygon class="st0" points="981.3,492.29 1117.58,475.18 1117.81,477.05 1118.39,476.22 1106.2,447.74 1010.36,463.32 "/>
<polygon class="st0" points="1041.96,590.7 1041.23,589.53 1041.06,591.25 "/>
<polygon class="st0" points="765.56,689.15 765.96,688.77 765.45,689.13 "/>
<path class="st0" d="M833.72,556.86l-2.31-8.33l-40.59-10.63c-2.55,6.12-5.53,12.01-8.93,17.66l28.59,5.21L833.72,556.86z"/>
<path class="st0" d="M938.99,355.45c-20.08,8.52-41.8,16.39-65.27,23.28c109.03-13.25,197.05-40.94,276.07-86.73l0.88,1.51
	l17.14-27.73c-82.81,39.03-157.67,68.47-228.74,89.91L938.99,355.45z"/>
<polygon class="st0" points="656.02,707.47 656.48,707.01 655.57,707.31 "/>
<path class="st0" d="M862.41,492.42l-0.72-19.13l-8.44-16.65l-51.75,5.32c0.01,0.15,0.02,0.29,0.03,0.44
	c0.86,10.07,0.91,19.87,0.18,29.35L862.41,492.42z"/>
<path class="st0" d="M860.79,495.56l-59.35-0.67c-0.6,6.12-1.52,12.09-2.78,17.92l43.38,9.09L860.79,495.56z"/>
<path class="st0" d="M846.52,545.77l-5.81-20.95l-42.75-8.92c-1.56,6.55-3.54,12.9-5.94,19.03l39.25,10.28L846.52,545.77z"/>
<path class="st0" d="M780.1,558.45c-2.93,4.61-6.14,9.05-9.64,13.31l39.25,17.99l3.63-11.58l-3.91-14.37L780.1,558.45z"/>
<polygon class="st0" points="865.58,492.44 976.33,492.78 1005.51,463.69 864.9,474.36 "/>
<path class="st0" d="M719.77,611.22l15.78,18.85l20.9-2.03l-23.79-23.86C728.5,606.7,724.2,609.05,719.77,611.22z"/>
<polygon class="st0" points="865.6,441.68 855.94,454.95 864.2,471.23 1007.99,460.34 996.54,436.84 "/>
<polygon class="st0" points="994.29,518.55 1069.86,509.7 1070.09,511.65 1094.19,510.57 1116.81,478.47 980.32,495.59 "/>
<path class="st0" d="M865.88,424.31l0.58,14.18l130.53-4.81l22.95-36.01c-53.09,8.08-105.68,13-151.01,16.59L865.88,424.31z"/>
<polygon class="st0" points="636.57,657.12 636.32,700.6 638.48,701.35 654.43,706.92 643.33,672.46 "/>
<polygon class="st0" points="657.02,668.29 646.76,672.77 657.48,706.05 670.99,692.89 670.01,693.4 "/>
<polygon class="st0" points="736.29,633.19 735.6,644.7 766.18,688.56 785.43,670.18 750.08,631.84 "/>
<polygon class="st0" points="720.1,644.67 713.04,651.58 730.29,680.95 729.61,681.35 762.23,688.43 732.79,646.22 "/>
<polygon class="st0" points="672.15,661.19 671.74,670.63 660.66,668.45 672.82,691.95 671.51,692.62 707.25,699.27 682.14,661.48 
	"/>
<polygon class="st0" points="689.87,650.37 684.72,659.65 710.07,697.81 727.38,682.25 710.3,653.38 "/>
<path class="st0" d="M961.06,345.52c64.65-20.82,132.72-48.25,207.29-83.47c-10.71-13.7-21.42-27.4-32.14-41.1
	c-10.98,6.76-21.56,13.25-31.86,19.52l1.7,1.62C1075.87,273.83,1028.95,313.18,961.06,345.52z"/>
<polygon class="st0" points="812.6,591.07 914.16,637.14 928.75,608.9 816.09,579.96 "/>
<polygon class="st0" points="958.83,546.47 1081.62,534 1081.87,536.44 1082.72,535.75 1069.43,512.94 993.67,521.8 "/>
<polygon class="st0" points="800.18,602.48 855.41,641.72 854.29,643.3 910.58,638.99 810.91,593.78 "/>
<polygon class="st0" points="961.9,560.98 969.69,582.55 1041.07,589.28 1026.16,565.58 1026.09,566.39 "/>
<polygon class="st0" points="960.46,557.69 1026.37,563.24 1026.27,564.31 1049.31,562.74 1080.85,537.27 955.88,549.96 "/>
<polygon class="st0" points="969.49,585.92 931.28,606.83 1006.3,612.45 1039.34,592.3 969.84,585.73 "/>
<polygon class="st0" points="777.24,607.37 775.33,618.56 844.94,672.87 853.25,644.07 796.28,603.59 "/>
<polygon class="st0" points="760.79,630.81 759.49,631.09 759.34,630.95 754.03,631.46 788.37,668.71 787.2,669.79 841.25,674.01 
	773.88,621.44 "/>
<path class="st0" d="M1169.37,335.64c-56.59,17.18-107.85,30.33-156.47,40.12l10.72,18.14c38.79-6.02,77.71-13.76,114.14-23.93
	l0.4,1.44l15.7-4.55L1169.37,335.64z"/>
<path class="st0" d="M636.65,644.76l21.38,19.94l10.71,2.11l0.3-7.07l-19.17-30.21c-3.86,0.27-7.75,0.43-11.66,0.48l-0.04-3.16
	c50.36-0.66,96.12-19.67,125.57-52.15c26.43-29.16,38.4-67.91,34.64-112.08c-3.05-47.03-4.31-66.48,58.48-82.46
	c123.49-32.81,200.92-92.66,244.69-137.99c-119.46,72.6-197.48,111.8-337.25,118.43c-60.3-0.24-60.79,37.72-43.31,62.96
	c67.52,104.17-1.74,166-82.59,176.09c-0.49,0.06-0.98,0.15-1.47,0.2L636.65,644.76z"/>
<polygon class="st0" points="638.18,650.52 638.18,653.24 645.61,669.81 654.64,665.88 "/>
</svg>
